<svg width="46" height="161" viewBox="0 0 46 161" fill="none" xmlns="http://www.w3.org/2000/svg">
<path d="M2.39 0.499987H43.13L36.62 104.24H8.9L2.39 0.499987ZM22.76 160.1C16.32 160.1 11 158.21 6.8 154.43C2.74 150.51 0.710001 145.47 0.710001 139.31C0.710001 133.15 2.74 128.18 6.8 124.4C11 120.62 16.32 118.73 22.76 118.73C29.34 118.73 34.66 120.62 38.72 124.4C42.92 128.18 45.02 133.15 45.02 139.31C45.02 145.47 42.92 150.51 38.72 154.43C34.66 158.21 29.34 160.1 22.76 160.1Z" fill="#004699"/>
</svg>
